<svg xmlns="http://www.w3.org/2000/svg" width="380" height="64" viewBox="0 0 380 64">
    <defs><linearGradient id="a" x1="50%" x2="50%" y1="0%" y2="100%"><stop stop-color="#80DDF3" offset="0%"/><stop stop-color="#4990E2" offset="100%"/></linearGradient></defs><g fill="none" fill-rule="evenodd"><path fill="#2E2E2E" d="M107.56 41.764h11.196V46h-16.47V20.406h5.273v21.358zM132.466 46c-.235-.457-.404-1.025-.51-1.705-1.23 1.37-2.83 2.057-4.8 2.057-1.862 0-3.406-.54-4.63-1.618-1.225-1.078-1.838-2.437-1.838-4.078 0-2.015.747-3.562 2.24-4.64 1.495-1.08 3.654-1.623 6.478-1.635h2.338v-1.09c0-.878-.225-1.58-.677-2.108-.452-.528-1.164-.79-2.136-.79-.856 0-1.527.204-2.013.614-.485.41-.73.973-.73 1.687h-5.08c0-1.1.34-2.12 1.02-3.058.68-.938 1.64-1.673 2.884-2.206 1.242-.534 2.636-.8 4.183-.8 2.344 0 4.204.588 5.58 1.766 1.378 1.177 2.067 2.833 2.067 4.965v8.245c.01 1.805.263 3.17.756 4.096v.3h-5.133zm-4.2-3.533c.75 0 1.44-.167 2.073-.5.633-.335 1.1-.783 1.406-1.346v-3.268h-1.898c-2.543 0-3.897.878-4.06 2.636l-.018.3c0 .632.222 1.153.668 1.564.445.41 1.054.615 1.828.615zm23.167-10.723c-.692-.094-1.3-.14-1.83-.14-1.92 0-3.18.65-3.778 1.95V46h-5.08V26.98h4.8l.14 2.268c1.02-1.746 2.43-2.62 4.236-2.62.562 0 1.09.077 1.582.23l-.07 4.886zM164.37 46c-.233-.457-.403-1.025-.51-1.705-1.23 1.37-2.83 2.057-4.798 2.057-1.863 0-3.407-.54-4.63-1.618-1.226-1.078-1.838-2.437-1.838-4.078 0-2.015.747-3.562 2.24-4.64 1.495-1.08 3.654-1.623 6.478-1.635h2.338v-1.09c0-.878-.225-1.58-.676-2.108-.452-.528-1.163-.79-2.136-.79-.856 0-1.526.204-2.013.614-.486.41-.73.973-.73 1.687h-5.08c0-1.1.34-2.12 1.02-3.058.68-.938 1.64-1.673 2.883-2.206 1.242-.534 2.637-.8 4.184-.8 2.343 0 4.204.588 5.58 1.766 1.378 1.177 2.066 2.833 2.066 4.965v8.245c.012 1.805.264 3.17.756 4.096v.3h-5.133zm-4.2-3.533c.75 0 1.44-.167 2.074-.5.633-.335 1.102-.783 1.406-1.346v-3.268h-1.898c-2.543 0-3.897.878-4.06 2.636l-.018.3c0 .632.222 1.153.668 1.564.445.41 1.054.615 1.828.615zm19.336-2.672l3.533-12.815h5.308L181.932 46h-4.852l-6.416-19.02h5.31l3.532 12.815zm19.6 6.557c-2.79 0-5.06-.856-6.812-2.567-1.752-1.71-2.628-3.99-2.628-6.838v-.492c0-1.91.37-3.618 1.107-5.124.74-1.505 1.785-2.665 3.138-3.48 1.355-.814 2.9-1.22 4.633-1.22 2.602 0 4.65.82 6.144 2.46 1.494 1.64 2.24 3.967 2.24 6.978v2.075h-12.11c.163 1.242.66 2.238 1.485 2.988.826.75 1.872 1.126 3.137 1.126 1.956 0 3.486-.71 4.587-2.127l2.496 2.794c-.76 1.078-1.793 1.92-3.093 2.522-1.3.604-2.742.906-4.325.906zm-.58-15.61c-1.008 0-1.826.34-2.453 1.02-.627.68-1.028 1.652-1.204 2.918h7.066v-.405c-.024-1.125-.33-1.995-.915-2.61-.584-.615-1.416-.923-2.495-.923zM215.17 46h-5.098V19h5.098v27zm16.383-10.424V46h-2.162V20.406h8.718c2.66 0 4.762.68 6.303 2.04 1.54 1.36 2.312 3.228 2.312 5.607 0 2.402-.742 4.257-2.224 5.563-1.48 1.307-3.63 1.96-6.44 1.96h-6.505zm0-1.828h6.556c2.1 0 3.7-.498 4.8-1.494 1.102-.996 1.653-2.385 1.653-4.166 0-1.77-.548-3.18-1.644-4.228-1.097-1.048-2.652-1.585-4.668-1.608h-6.697v11.496zM262.88 46c-.212-.598-.347-1.482-.405-2.654-.74.96-1.68 1.702-2.822 2.223-1.142.52-2.352.782-3.63.782-1.828 0-3.307-.51-4.438-1.53-1.13-1.02-1.696-2.308-1.696-3.867 0-1.85.77-3.316 2.31-4.394 1.54-1.078 3.69-1.617 6.443-1.617h3.814V32.78c0-1.358-.42-2.427-1.257-3.207-.838-.78-2.06-1.17-3.665-1.17-1.465 0-2.678.376-3.64 1.126-.96.75-1.44 1.652-1.44 2.706l-2.11-.017c0-1.513.704-2.823 2.11-3.93 1.406-1.107 3.135-1.66 5.186-1.66 2.122 0 3.795.53 5.02 1.59 1.224 1.06 1.854 2.54 1.89 4.438v9c0 1.84.192 3.217.58 4.13V46h-2.25zm-6.61-1.512c1.406 0 2.663-.34 3.77-1.02 1.107-.68 1.913-1.587 2.417-2.724V36.56h-3.762c-2.097.024-3.738.408-4.922 1.152-1.183.744-1.775 1.767-1.775 3.067 0 1.066.396 1.95 1.187 2.654.79.703 1.82 1.054 3.085 1.054zm25.277-3.322c0-1.043-.42-1.88-1.257-2.514-.838-.632-2.1-1.128-3.788-1.485-1.688-.357-2.997-.768-3.93-1.23-.93-.463-1.622-1.03-2.073-1.697-.452-.668-.678-1.476-.678-2.426 0-1.5.627-2.74 1.88-3.717 1.255-.98 2.86-1.468 4.818-1.468 2.12 0 3.823.523 5.106 1.572 1.283 1.05 1.925 2.417 1.925 4.105h-2.11c0-1.114-.464-2.04-1.396-2.778-.932-.74-2.106-1.108-3.524-1.108-1.383 0-2.494.307-3.332.923-.837.615-1.256 1.415-1.256 2.4 0 .948.348 1.684 1.046 2.205.697.522 1.968 1 3.814 1.433 1.846.433 3.23.896 4.148 1.388.92.494 1.603 1.085 2.048 1.777.446.69.668 1.53.668 2.514 0 1.606-.647 2.89-1.942 3.85s-2.985 1.442-5.07 1.442c-2.216 0-4.012-.537-5.39-1.61-1.376-1.07-2.065-2.428-2.065-4.068h2.11c.08 1.23.6 2.188 1.554 2.874.956.685 2.218 1.028 3.79 1.028 1.463 0 2.647-.322 3.55-.967.902-.645 1.353-1.46 1.353-2.444zm18.228 0c0-1.043-.42-1.88-1.256-2.514-.84-.632-2.102-1.128-3.79-1.485-1.687-.357-2.997-.768-3.928-1.23-.932-.463-1.623-1.03-2.074-1.697-.452-.668-.677-1.476-.677-2.426 0-1.5.628-2.74 1.882-3.717 1.254-.98 2.86-1.468 4.816-1.468 2.12 0 3.823.523 5.106 1.572 1.284 1.05 1.925 2.417 1.925 4.105h-2.11c0-1.114-.466-2.04-1.398-2.778-.93-.74-2.106-1.108-3.524-1.108-1.383 0-2.493.307-3.33.923-.84.615-1.258 1.415-1.258 2.4 0 .948.35 1.684 1.046 2.205.697.522 1.97 1 3.815 1.433 1.846.433 3.23.896 4.15 1.388.92.494 1.6 1.085 2.047 1.777.445.69.668 1.53.668 2.514 0 1.606-.648 2.89-1.943 3.85s-2.985 1.442-5.07 1.442c-2.216 0-4.012-.537-5.39-1.61-1.376-1.07-2.064-2.428-2.064-4.068h2.11c.08 1.23.6 2.188 1.555 2.874.955.685 2.218 1.028 3.788 1.028 1.466 0 2.65-.322 3.552-.967.902-.645 1.353-1.46 1.353-2.444zm22.13-4.482c0 2.964-.655 5.317-1.967 7.057-1.313 1.74-3.07 2.612-5.274 2.612-2.602 0-4.594-.914-5.976-2.743v9.703h-2.092V26.98h1.95l.106 2.69c1.37-2.027 3.358-3.04 5.96-3.04 2.273 0 4.057.86 5.352 2.583 1.295 1.723 1.942 4.113 1.942 7.172v.3zm-2.108-.37c0-2.425-.498-4.34-1.494-5.748-.996-1.406-2.385-2.11-4.166-2.11-1.29 0-2.397.312-3.323.933-.925.62-1.634 1.522-2.127 2.706v9.123c.504 1.09 1.225 1.92 2.163 2.495.937.574 2.045.86 3.322.86 1.77 0 3.15-.705 4.14-2.117.99-1.412 1.485-3.46 1.485-6.144zm5.607-.105c0-1.83.355-3.476 1.064-4.94.71-1.465 1.71-2.605 3.006-3.42 1.295-.814 2.762-1.22 4.403-1.22 2.53 0 4.582.887 6.152 2.662 1.57 1.775 2.355 4.128 2.355 7.058v.44c0 1.84-.355 3.494-1.064 4.965-.708 1.47-1.707 2.604-2.996 3.4-1.29.798-2.76 1.197-4.412 1.197-2.52 0-4.567-.888-6.143-2.664-1.578-1.775-2.366-4.127-2.366-7.057v-.42zm2.11.58c0 2.273.59 4.14 1.766 5.598 1.178 1.46 2.722 2.188 4.632 2.188 1.9 0 3.437-.73 4.614-2.188 1.178-1.46 1.767-3.384 1.767-5.775v-.404c0-1.454-.27-2.784-.81-3.99-.538-1.208-1.294-2.143-2.266-2.805-.973-.662-2.086-.993-3.34-.993-1.875 0-3.404.735-4.588 2.206-1.185 1.47-1.776 3.395-1.776 5.774v.387zm28.002-8.017c-.446-.082-.92-.123-1.424-.123-1.313 0-2.423.367-3.33 1.1-.91.73-1.557 1.795-1.944 3.19V46h-2.09V26.98h2.055l.035 3.024c1.114-2.25 2.9-3.375 5.362-3.375.586 0 1.05.075 1.388.227l-.052 1.916zm7.47-6.662v4.87h3.938v1.723h-3.938v12.674c0 1.055.19 1.84.572 2.355.38.516 1.016.774 1.907.774.35 0 .92-.06 1.705-.176l.088 1.723c-.55.2-1.3.3-2.25.3-1.442 0-2.49-.42-3.147-1.258-.655-.838-.983-2.072-.983-3.7V28.703h-3.498V26.98h3.497v-4.87h2.11z"/><rect width="80" height="60" y="2" fill="url(#a)" rx="6"/><path fill="#FFF" d="M22.236 62l15-30-15-30h-4.472l15 30-15 30h4.472zm12 0l15-30-15-30h-4.472l15 30-15 30h4.472zm12 0l15-30-15-30h-4.472l15 30-15 30h4.472z"/></g>
</svg>
