<svg xmlns="http://www.w3.org/2000/svg" width="371" height="64" viewBox="0 0 371 64"><style>.st0,.st2{fill-rule:evenodd;clip-rule:evenodd;fill:#fff}.st2{fill:#2e2e2e}</style><path class="st0" d="M307.1 54.8V25.5h4.9v.8c1.3-.8 2.8-1.2 4.6-1.2 2.8 0 5 1.1 6.6 3.2 1.5 2 2.2 4.7 2.2 8.1v.3c0 3.3-.8 6-2.3 8-1.6 2.1-3.8 3.2-6.5 3.2-1.7 0-3.2-.3-4.5-1v8h-5zm5.1-13.9c.4.7.8 1.2 1.4 1.6.7.4 1.5.6 2.5.6 1.3 0 2.2-.5 2.9-1.5.8-1.1 1.2-2.9 1.2-5.3 0-2.1-.4-3.7-1.2-4.9-.7-1-1.6-1.5-2.9-1.5-1 0-1.8.2-2.5.7-.6.4-1.1 1-1.5 1.8v8.5zm54.8 7c-1.9 0-3.4-.6-4.3-1.8-.9-1.1-1.3-2.7-1.3-4.6V30.2H359v.4l-1.7-.3c-.4-.1-.7-.1-1.2-.1-1 0-1.7.3-2.4.8-.6.5-1.1 1.2-1.4 2.2v14.3h-5.1v-22h5v.7c1.1-.7 2.4-1 3.9-1 .8 0 1.5.1 2 .4h3.2v-4.9h5.1v4.9h3.9v4.7h-3.9v11.2c0 1 .2 1.4.3 1.5.1.1.3.2.7.2.2 0 .5 0 1.5-.2l1.6-.2.2 4.5-1 .4c-.7 0-1.6.2-2.7.2zm-70.1 0c-2.5 0-4.7-.6-6.3-1.9-1.7-1.3-2.6-3.2-2.6-5.3v-1.5h5l.1 1.4c.1.8.3 1.3.9 1.8.7.5 1.7.7 2.9.7 1.1 0 2-.2 2.7-.7.6-.5.7-.9.7-1.2 0-.6-.2-1-.7-1.3-.5-.3-1.4-.8-3.2-1.2-1.8-.4-3.2-.8-4.3-1.4-1.2-.6-2.1-1.3-2.6-2.2-.6-.9-.9-2-.9-3.3 0-2 .9-3.6 2.5-4.9 1.5-1.2 3.4-1.8 5.7-1.8 2.5 0 4.5.6 6.1 1.9 1.6 1.3 2.5 3.1 2.5 5.3v1.5h-5.1v-1.5c0-.7-.3-1.1-.8-1.6-.7-.5-1.5-.8-2.6-.8s-1.9.2-2.4.6c-.5.3-.6.7-.6 1.2 0 .6.2.8.4 1 .3.2 1.1.7 3.3 1.2 2 .5 3.5 1 4.5 1.5 1.1.6 2 1.4 2.6 2.3.6.9.9 2.1.9 3.3 0 2.1-.9 3.8-2.5 5.1-1.8 1.2-3.8 1.8-6.2 1.8zm-18.3 0c-2.5 0-4.7-.6-6.3-1.9-1.7-1.3-2.6-3.2-2.6-5.3v-1.5h5l.1 1.4c.1.8.3 1.3.9 1.8.7.5 1.7.7 2.9.7 1.1 0 2-.2 2.7-.7.6-.5.7-.9.7-1.2 0-.6-.2-1-.7-1.3-.5-.3-1.4-.8-3.2-1.2-1.8-.4-3.2-.8-4.3-1.4-1.2-.6-2.1-1.3-2.6-2.2-.6-.9-.9-2-.9-3.3 0-2 .8-3.6 2.5-4.9 1.5-1.2 3.4-1.8 5.7-1.8 2.5 0 4.5.6 6.1 1.9 1.6 1.3 2.5 3.1 2.5 5.3v1.5H282v-1.5c0-.7-.3-1.1-.8-1.6-.7-.5-1.5-.8-2.6-.8s-1.9.2-2.4.6c-.5.3-.6.7-.6 1.2 0 .6.2.8.4 1 .3.2 1.1.7 3.3 1.2 2 .5 3.5 1 4.5 1.5 1.1.6 2 1.4 2.6 2.3.6.9.9 2.1.9 3.3 0 2.1-.9 3.8-2.5 5.1-1.7 1.2-3.8 1.8-6.2 1.8zm57.3 0c-3 0-5.4-1.1-7.3-3.2-1.8-2-2.7-4.8-2.7-8.1v-.4c0-2.1.4-3.9 1.2-5.6.8-1.7 2-3.1 3.6-4 1.5-1 3.3-1.5 5.2-1.5 3 0 5.4 1.1 7.3 3.2 1.8 2 2.7 4.8 2.7 8.1v.4c0 2.1-.4 3.9-1.2 5.6-.8 1.7-2 3.1-3.6 4-1.5 1-3.3 1.5-5.2 1.5zM331 36.8c0 1.9.5 3.5 1.4 4.7.9 1.1 2 1.6 3.5 1.6s2.5-.5 3.4-1.6c1-1.2 1.4-2.8 1.4-4.8v-.4c0-1.2-.2-2.4-.7-3.4-.4-1-1-1.7-1.7-2.2-.7-.5-1.5-.7-2.5-.7-1.4 0-2.5.5-3.4 1.6-1 1.2-1.4 2.8-1.4 4.8v.4zm-73 11.1c-2.2 0-4-.6-5.4-1.9-1.5-1.3-2.2-3-2.2-5 0-2.3 1-4.3 3-5.6 1.8-1.3 4.2-1.9 7.3-1.9h2.3v-.7c0-.9-.2-1.6-.8-2.1-.5-.5-1.4-.8-2.6-.8-1.1 0-2 .3-2.7.8-.8.6-.9 1.1-.9 1.5v1.5h-5.1v-1.5c0-2 .9-3.7 2.7-5.1 1.7-1.3 3.7-2 6.1-2 2.5 0 4.5.7 6 2 1.6 1.3 2.4 3.2 2.4 5.5v9c0 2 .3 3 .5 3.5l.1.3v2h-4.8s-.4-1.1-.4-1.2c-.4.2-.7.4-1.1.6-1.5.7-2.9 1.1-4.4 1.1zm2.7-9.8c-1.8 0-3.2.3-4.1.9-.7.5-1.1 1-1.1 1.8 0 .6.2 1.1.7 1.5.5.5 1.2.7 2.1.7 1.1 0 2.1-.3 3-.8.8-.5 1.3-1.1 1.7-1.8v-2.3h-2.3zm-30.8 9.4V18.9h10.2c3 0 5.5.8 7.3 2.4 1.9 1.7 2.8 3.9 2.8 6.7 0 2.8-.9 5.1-2.7 6.7-1.8 1.5-4.3 2.3-7.4 2.3h-5v10.4h-5.2zm10.2-15.3c1.7 0 3-.4 3.8-1.1.8-.7 1.2-1.7 1.2-3.1 0-1.4-.4-2.4-1.2-3.1-.8-.8-2-1.2-3.6-1.2h-5.2v8.5h5zM210.1 17v13.9c-.5-1.2-1.1-2.3-1.9-3.2-1.9-2.1-4.4-3.1-7.6-3.1-2.1 0-4 .5-5.7 1.5-1.3.8-2.3 1.8-3.2 3l1.4-4.2h-9.6l-2 7.3-2-7.3h-9.6l.9 2.7c-.2-.3-.5-.6-.8-.8-1.7-1.5-4.1-2.2-6.9-2.2-1.8 0-3.5.3-5 1-1 .4-1.9 1-2.6 1.7v-1.9l-1.4-.4c-.7-.2-1.4-.3-2.2-.3-.7 0-1.6.1-2.5.5v-.1h-8.7v7c-.3-2.1-1.2-3.8-2.7-5.1-1.7-1.5-4.1-2.2-6.9-2.2-1.8 0-3.5.3-5 1-1.6.7-2.8 1.6-3.7 2.9-.9 1.3-1.4 2.7-1.4 4.2v2h2.3c-1.5 1.3-2.4 3-2.6 5.1h-9.2V18.4h-9.3V48h20.5v-2.2l.4.4c1.6 1.4 3.6 2.1 6 2.1.9 0 1.8-.1 2.6-.3h18.1V34.1c.2-.2.7-.5 1.8-.5.4 0 .9 0 1.4.1v1h2.3c-1.8 1.4-2.7 3.5-2.7 6 0 2.2.9 4.1 2.5 5.6 1.6 1.4 3.6 2.1 6 2.1 1.4 0 2.7-.3 3.8-.8l.2.5h8.4v-2.8l-.2-.4c-.2-.4-.5-1.2-.5-3.2v-8.1l4.9 14.5h7.7l4.4-13c0 .5-.1.9-.1 1.4v.5c0 3.4 1.1 6.2 3.2 8.3 2.1 2.1 4.9 3.1 8.2 3.1 1.9 0 3.6-.4 5.2-1.1 1.6-.7 2.8-1.8 3.8-3.1V48h9.1V17h-9.1zM8 64c-4.4 0-8-3.6-8-8V8c0-4.4 3.6-8 8-8h68c4.4 0 8 3.6 8 8v48c0 4.4-3.6 8-8 8H8z"/><linearGradient id="SVGID_1_" gradientUnits="userSpaceOnUse" x1="47.925" y1="308.883" x2="47.925" y2="307.883" gradientTransform="matrix(80 0 0 -60 -3792 18535)"><stop offset="0" stop-color="#80ddf3"/><stop offset="1" stop-color="#4990e2"/></linearGradient><path d="M8 2h68c3.3 0 6 2.7 6 6v48c0 3.3-2.7 6-6 6H8c-3.3 0-6-2.7-6-6V8c0-3.3 2.7-6 6-6z" fill-rule="evenodd" clip-rule="evenodd" fill="url(#SVGID_1_)"/><path class="st0" d="m24.2 62 15-30-15-30h-4.5l15 30-15 30h4.5zm12 0 15-30-15-30h-4.5l15 30-15 30h4.5zm12 0 15-30-15-30h-4.5l15 30-15 30h4.5z"/><path class="st2" d="M109.6 41.8h11.2V46h-16.5V20.4h5.3v21.4zM138.8 41.6v-8.2c0-2.1-.7-3.8-2.1-5-1.4-1.2-3.2-1.8-5.6-1.8-1.5 0-2.9.3-4.2.8-1.2.5-2.2 1.3-2.9 2.2s-1 2-1 3.1h5.1c0-.7.2-1.3.7-1.7.5-.4 1.2-.6 2-.6 1 0 1.7.3 2.1.8.5.5.7 1.2.7 2.1v1.1h-2.3c-2.8 0-5 .6-6.5 1.6-1.5 1.1-2.2 2.6-2.2 4.6 0 1.6.6 3 1.8 4.1 1.2 1.1 2.8 1.6 4.6 1.6 2 0 3.6-.7 4.8-2.1.1.7.3 1.2.5 1.7h5.1v-.3c-.3-.8-.5-2.2-.6-4zm-5.1-1c-.3.6-.8 1-1.4 1.3-.6.3-1.3.5-2.1.5s-1.4-.2-1.8-.6c-.4-.4-.7-.9-.7-1.6v-.3c.2-1.8 1.5-2.6 4.1-2.6h1.9v3.3zM153.4 31.7c-.7-.1-1.3-.1-1.8-.1-1.9 0-3.2.7-3.8 2V46h-5.1V27h4.8l.1 2.3c1-1.7 2.4-2.6 4.2-2.6.6 0 1.1.1 1.6.2.1 0 0 4.8 0 4.8zM170.7 41.6v-8.2c0-2.1-.7-3.8-2.1-5-1.4-1.2-3.2-1.8-5.6-1.8-1.5 0-2.9.3-4.2.8-1.2.5-2.2 1.3-2.9 2.2-.7.9-1 2-1 3.1h5.1c0-.7.2-1.3.7-1.7.5-.4 1.2-.6 2-.6 1 0 1.7.3 2.1.8.5.5.7 1.2.7 2.1v1.1h-2.3c-2.8 0-5 .6-6.5 1.6-1.5 1.1-2.2 2.6-2.2 4.6 0 1.6.6 3 1.8 4.1 1.2 1.1 2.8 1.6 4.6 1.6 2 0 3.6-.7 4.8-2.1.1.7.3 1.2.5 1.7h5.1v-.3c-.3-.8-.5-2.2-.6-4zm-5-1c-.3.6-.8 1-1.4 1.3-.6.3-1.3.5-2.1.5s-1.4-.2-1.8-.6c-.4-.4-.7-.9-.7-1.6v-.3c.2-1.8 1.5-2.6 4.1-2.6h1.9v3.3zM181.5 39.8 185 27h5.3l-6.4 19h-4.8l-6.4-19h5.3zM208.9 36.1c0-3-.7-5.3-2.2-7s-3.5-2.5-6.1-2.5c-1.7 0-3.3.4-4.6 1.2-1.4.8-2.4 2-3.1 3.5-.7 1.5-1.1 3.2-1.1 5.1v.5c0 2.8.9 5.1 2.6 6.8 1.8 1.7 4 2.6 6.8 2.6 1.6 0 3-.3 4.3-.9 1.3-.6 2.3-1.4 3.1-2.5l-2.5-2.8c-1.1 1.4-2.6 2.1-4.6 2.1-1.3 0-2.3-.4-3.1-1.1-.8-.8-1.3-1.7-1.5-3H209v-2zm-5-1.4h-7.1c.2-1.3.6-2.2 1.2-2.9.6-.7 1.4-1 2.5-1s1.9.3 2.5.9c.6.6.9 1.5.9 2.6v.4zM212.1 19h5.1v27h-5.1zM233.6 35.6V46h-2.2V20.4h8.7c2.7 0 4.8.7 6.3 2 1.5 1.4 2.3 3.2 2.3 5.6 0 2.4-.7 4.3-2.2 5.6-1.5 1.3-3.6 2-6.4 2h-6.5zm0-1.9h6.6c2.1 0 3.7-.5 4.8-1.5 1.1-1 1.7-2.4 1.7-4.2 0-1.8-.5-3.2-1.6-4.2s-2.7-1.6-4.7-1.6h-6.7v11.5zM264.9 46c-.2-.6-.3-1.5-.4-2.7-.7 1-1.7 1.7-2.8 2.2-1.1.5-2.4.8-3.6.8-1.8 0-3.3-.5-4.4-1.5-1.1-1-1.7-2.3-1.7-3.9 0-1.8.8-3.3 2.3-4.4s3.7-1.6 6.4-1.6h3.8v-2.2c0-1.4-.4-2.4-1.3-3.2-.8-.8-2.1-1.2-3.7-1.2-1.5 0-2.7.4-3.6 1.1-1 .8-1.4 1.7-1.4 2.7h-2.1c0-1.5.7-2.8 2.1-3.9s3.1-1.7 5.2-1.7 3.8.5 5 1.6c1.2 1.1 1.9 2.5 1.9 4.4v9c0 1.8.2 3.2.6 4.1v.4h-2.3zm-6.6-1.5c1.4 0 2.7-.3 3.8-1s1.9-1.6 2.4-2.7v-4.2h-3.8c-2.1 0-3.7.4-4.9 1.2-1.2.7-1.8 1.8-1.8 3.1 0 1.1.4 2 1.2 2.7.8.5 1.8.9 3.1.9zm25.2-3.3c0-1-.4-1.9-1.3-2.5-.8-.6-2.1-1.1-3.8-1.5-1.7-.4-3-.8-3.9-1.2-.9-.5-1.6-1-2.1-1.7s-.7-1.5-.7-2.4c0-1.5.6-2.7 1.9-3.7 1.3-1 2.9-1.5 4.8-1.5 2.1 0 3.8.5 5.1 1.6 1.3 1 1.9 2.4 1.9 4.1h-2.1c0-1.1-.5-2-1.4-2.8-.9-.7-2.1-1.1-3.5-1.1s-2.5.3-3.3.9c-.8.6-1.3 1.4-1.3 2.4 0 .9.3 1.7 1 2.2.7.5 2 1 3.8 1.4s3.2.9 4.1 1.4c.9.5 1.6 1.1 2 1.8.4.7.7 1.5.7 2.5 0 1.6-.6 2.9-1.9 3.8s-3 1.4-5.1 1.4c-2.2 0-4-.5-5.4-1.6-1.4-1.1-2.1-2.4-2.1-4.1h2.1c.1 1.2.6 2.2 1.6 2.9 1 .7 2.2 1 3.8 1 1.5 0 2.6-.3 3.5-1 1.2-.5 1.6-1.4 1.6-2.3zm18.3 0c0-1-.4-1.9-1.3-2.5-.8-.6-2.1-1.1-3.8-1.5-1.7-.4-3-.8-3.9-1.2-.9-.5-1.6-1-2.1-1.7s-.7-1.5-.7-2.4c0-1.5.6-2.7 1.9-3.7 1.3-1 2.9-1.5 4.8-1.5 2.1 0 3.8.5 5.1 1.6 1.3 1 1.9 2.4 1.9 4.1h-2.1c0-1.1-.5-2-1.4-2.8-.9-.7-2.1-1.1-3.5-1.1s-2.5.3-3.3.9c-.8.6-1.3 1.4-1.3 2.4 0 .9.4 1.7 1 2.2.7.5 2 1 3.8 1.4 1.8.4 3.2.9 4.1 1.4.9.5 1.6 1.1 2 1.8.4.7.7 1.5.7 2.5 0 1.6-.6 2.9-1.9 3.8s-3 1.4-5.1 1.4c-2.2 0-4-.5-5.4-1.6-1.4-1.1-2.1-2.4-2.1-4.1h2.1c.1 1.2.6 2.2 1.6 2.9 1 .7 2.2 1 3.8 1 1.5 0 2.6-.3 3.6-1s1.5-1.4 1.5-2.3zm22.1-4.5c0 3-.7 5.3-2 7.1-1.3 1.7-3.1 2.6-5.3 2.6-2.6 0-4.6-.9-6-2.7v9.7h-2.1V27h2l.1 2.7c1.4-2 3.4-3 6-3 2.3 0 4.1.9 5.4 2.6 1.3 1.7 1.9 4.1 1.9 7.2v.2zm-2.1-.4c0-2.4-.5-4.3-1.5-5.7-1-1.4-2.4-2.1-4.2-2.1-1.3 0-2.4.3-3.3.9-.9.6-1.6 1.5-2.1 2.7v9.1c.5 1.1 1.2 1.9 2.2 2.5.9.6 2 .9 3.3.9 1.8 0 3.1-.7 4.1-2.1 1-1.5 1.5-3.5 1.5-6.2zm5.6-.1c0-1.8.4-3.5 1.1-4.9.7-1.5 1.7-2.6 3-3.4 1.3-.8 2.8-1.2 4.4-1.2 2.5 0 4.6.9 6.2 2.7 1.6 1.8 2.4 4.1 2.4 7.1v.4c0 1.8-.4 3.5-1.1 5-.7 1.5-1.7 2.6-3 3.4-1.3.8-2.8 1.2-4.4 1.2-2.5 0-4.6-.9-6.1-2.7-1.6-1.8-2.4-4.1-2.4-7.1l-.1-.5zm2.1.6c0 2.3.6 4.1 1.8 5.6 1.2 1.5 2.7 2.2 4.6 2.2 1.9 0 3.4-.7 4.6-2.2 1.2-1.5 1.8-3.4 1.8-5.8v-.4c0-1.5-.3-2.8-.8-4-.5-1.2-1.3-2.1-2.3-2.8-1-.7-2.1-1-3.3-1-1.9 0-3.4.7-4.6 2.2-1.2 1.5-1.8 3.4-1.8 5.8v.4zm28-8c-.4-.1-.9-.1-1.4-.1-1.3 0-2.4.4-3.3 1.1-.9.7-1.6 1.8-1.9 3.2v13h-2.1V27h2.1v3c1.1-2.2 2.9-3.4 5.4-3.4.6 0 1 .1 1.4.2-.1.1-.2 2-.2 2zm7.5-6.7V27h3.9v1.7H365v12.7c0 1.1.2 1.8.6 2.4.4.5 1 .8 1.9.8.4 0 .9-.1 1.7-.2l.1 1.7c-.5.2-1.3.3-2.2.3-1.4 0-2.5-.4-3.1-1.3-.7-.8-1-2.1-1-3.7V28.7h-3.5V27h3.5v-4.9h2z"/></svg>