<svg viewBox="0 0 368 60" xmlns="http://www.w3.org/2000/svg">
    <style>
        #passport { fill: #2e2e2e } @media (prefers-color-scheme:dark) { #passport { fill: #fff } }
    </style>
    <path fill-rule="evenodd" clip-rule="evenodd" d="M6 0H74C77.3 0 80 2.7 80 6V54C80 57.3 77.3 60 74 60H6C2.7 60 0 57.3 0 54V6C0 2.7 2.7 0 6 0Z" fill="url(#gradient)"/>
    <path fill-rule="evenodd" clip-rule="evenodd" d="M22.2 60L37.2 30L22.2 0H17.7L32.7 30L17.7 60H22.2ZM34.2 60L49.2 30L34.2 0H29.7L44.7 30L29.7 60H34.2ZM46.2 60L61.2 30L46.2 0H41.7L56.7 30L41.7 60H46.2Z" fill="white"/>
    <path id="passport" fill-rule="evenodd" clip-rule="evenodd" d="M107.6 39.8H118.8V44H102.3V18.4H107.6V39.8ZM136.8 39.6V31.4C136.8 29.3 136.1 27.6 134.7 26.4C133.3 25.2 131.5 24.6 129.1 24.6C127.6 24.6 126.2 24.9 124.9 25.4C123.7 25.9 122.7 26.7 122 27.6C121.3 28.5 121 29.6 121 30.7H126.1C126.1 30 126.3 29.4 126.8 29C127.3 28.6 128 28.4 128.8 28.4C129.8 28.4 130.5 28.7 130.9 29.2C131.4 29.7 131.6 30.4 131.6 31.3V32.4H129.3C126.5 32.4 124.3 33 122.8 34C121.3 35.1 120.6 36.6 120.6 38.6C120.6 40.2 121.2 41.6 122.4 42.7C123.6 43.8 125.2 44.3 127 44.3C129 44.3 130.6 43.6 131.8 42.2C131.9 42.9 132.1 43.4 132.3 43.9H137.4V43.6C137.1 42.8 136.9 41.4 136.8 39.6ZM131.7 38.6C131.4 39.2 130.9 39.6 130.3 39.9C129.7 40.2 129 40.4 128.2 40.4C127.4 40.4 126.8 40.2 126.4 39.8C126 39.4 125.7 38.9 125.7 38.2V37.9C125.9 36.1 127.2 35.3 129.8 35.3H131.7V38.6ZM151.4 29.7C150.7 29.6 150.1 29.6 149.6 29.6C147.7 29.6 146.4 30.3 145.8 31.6V44H140.7V25H145.5L145.6 27.3C146.6 25.6 148 24.7 149.8 24.7C150.4 24.7 150.9 24.8 151.4 24.9C151.5 24.9 151.4 29.7 151.4 29.7ZM168.7 39.6V31.4C168.7 29.3 168 27.6 166.6 26.4C165.2 25.2 163.4 24.6 161 24.6C159.5 24.6 158.1 24.9 156.8 25.4C155.6 25.9 154.6 26.7 153.9 27.6C153.2 28.5 152.9 29.6 152.9 30.7H158C158 30 158.2 29.4 158.7 29C159.2 28.6 159.9 28.4 160.7 28.4C161.7 28.4 162.4 28.7 162.8 29.2C163.3 29.7 163.5 30.4 163.5 31.3V32.4H161.2C158.4 32.4 156.2 33 154.7 34C153.2 35.1 152.5 36.6 152.5 38.6C152.5 40.2 153.1 41.6 154.3 42.7C155.5 43.8 157.1 44.3 158.9 44.3C160.9 44.3 162.5 43.6 163.7 42.2C163.8 42.9 164 43.4 164.2 43.9H169.3V43.6C169 42.8 168.8 41.4 168.7 39.6ZM163.7 38.6C163.4 39.2 162.9 39.6 162.3 39.9C161.7 40.2 161 40.4 160.2 40.4C159.4 40.4 158.8 40.2 158.4 39.8C158 39.4 157.7 38.9 157.7 38.2V37.9C157.9 36.1 159.2 35.3 161.8 35.3H163.7V38.6ZM179.5 37.8L183 25H188.3L181.9 44H177.1L170.7 25H176L179.5 37.8ZM206.9 34.1C206.9 31.1 206.2 28.8 204.7 27.1C203.2 25.4 201.2 24.6 198.6 24.6C196.9 24.6 195.3 25 194 25.8C192.6 26.6 191.6 27.8 190.9 29.3C190.2 30.8 189.8 32.5 189.8 34.4V34.9C189.8 37.7 190.7 40 192.4 41.7C194.2 43.4 196.4 44.3 199.2 44.3C200.8 44.3 202.2 44 203.5 43.4C204.8 42.8 205.8 42 206.6 40.9L204.1 38.1C203 39.5 201.5 40.2 199.5 40.2C198.2 40.2 197.2 39.8 196.4 39.1C195.6 38.3 195.1 37.4 194.9 36.1H207V34.1H206.9ZM201.9 32.7H194.8C195 31.4 195.4 30.5 196 29.8C196.6 29.1 197.4 28.8 198.5 28.8C199.6 28.8 200.4 29.1 201 29.7C201.6 30.3 201.9 31.2 201.9 32.3V32.7ZM210.1 17H215.2V44H210.1V17ZM231.6 33.6V44H229.4V18.4H238.1C240.8 18.4 242.9 19.1 244.4 20.4C245.9 21.8 246.7 23.6 246.7 26C246.7 28.4 246 30.3 244.5 31.6C243 32.9 240.9 33.6 238.1 33.6H231.6ZM231.6 31.7H238.2C240.3 31.7 241.9 31.2 243 30.2C244.1 29.2 244.7 27.8 244.7 26C244.7 24.2 244.2 22.8 243.1 21.8C242 20.8 240.4 20.2 238.4 20.2H231.7V31.7H231.6ZM262.9 44C262.7 43.4 262.6 42.5 262.5 41.3C261.8 42.3 260.8 43 259.7 43.5C258.6 44 257.3 44.3 256.1 44.3C254.3 44.3 252.8 43.8 251.7 42.8C250.6 41.8 250 40.5 250 38.9C250 37.1 250.8 35.6 252.3 34.5C253.8 33.4 256 32.9 258.7 32.9H262.5V30.7C262.5 29.3 262.1 28.3 261.2 27.5C260.4 26.7 259.1 26.3 257.5 26.3C256 26.3 254.8 26.7 253.9 27.4C252.9 28.2 252.5 29.1 252.5 30.1H250.4C250.4 28.6 251.1 27.3 252.5 26.2C253.9 25.1 255.6 24.5 257.7 24.5C259.8 24.5 261.5 25 262.7 26.1C263.9 27.2 264.6 28.6 264.6 30.5V39.5C264.6 41.3 264.8 42.7 265.2 43.6V44H262.9ZM256.3 42.5C257.7 42.5 259 42.2 260.1 41.5C261.2 40.8 262 39.9 262.5 38.8V34.6H258.7C256.6 34.6 255 35 253.8 35.8C252.6 36.5 252 37.6 252 38.9C252 40 252.4 40.9 253.2 41.6C254 42.1 255 42.5 256.3 42.5ZM281.5 39.2C281.5 38.2 281.1 37.3 280.2 36.7C279.4 36.1 278.1 35.6 276.4 35.2C274.7 34.8 273.4 34.4 272.5 34C271.6 33.5 270.9 33 270.4 32.3C269.9 31.6 269.7 30.8 269.7 29.9C269.7 28.4 270.3 27.2 271.6 26.2C272.9 25.2 274.5 24.7 276.4 24.7C278.5 24.7 280.2 25.2 281.5 26.3C282.8 27.3 283.4 28.7 283.4 30.4H281.3C281.3 29.3 280.8 28.4 279.9 27.6C279 26.9 277.8 26.5 276.4 26.5C275 26.5 273.9 26.8 273.1 27.4C272.3 28 271.8 28.8 271.8 29.8C271.8 30.7 272.1 31.5 272.8 32C273.5 32.5 274.8 33 276.6 33.4C278.4 33.8 279.8 34.3 280.7 34.8C281.6 35.3 282.3 35.9 282.7 36.6C283.1 37.3 283.4 38.1 283.4 39.1C283.4 40.7 282.8 42 281.5 42.9C280.2 43.8 278.5 44.3 276.4 44.3C274.2 44.3 272.4 43.8 271 42.7C269.6 41.6 268.9 40.3 268.9 38.6H271C271.1 39.8 271.6 40.8 272.6 41.5C273.6 42.2 274.8 42.5 276.4 42.5C277.9 42.5 279 42.2 279.9 41.5C281.1 41 281.5 40.1 281.5 39.2ZM299.8 39.2C299.8 38.2 299.4 37.3 298.5 36.7C297.7 36.1 296.4 35.6 294.7 35.2C293 34.8 291.7 34.4 290.8 34C289.9 33.5 289.2 33 288.7 32.3C288.2 31.6 288 30.8 288 29.9C288 28.4 288.6 27.2 289.9 26.2C291.2 25.2 292.8 24.7 294.7 24.7C296.8 24.7 298.5 25.2 299.8 26.3C301.1 27.3 301.7 28.7 301.7 30.4H299.6C299.6 29.3 299.1 28.4 298.2 27.6C297.3 26.9 296.1 26.5 294.7 26.5C293.3 26.5 292.2 26.8 291.4 27.4C290.6 28 290.1 28.8 290.1 29.8C290.1 30.7 290.5 31.5 291.1 32C291.8 32.5 293.1 33 294.9 33.4C296.7 33.8 298.1 34.3 299 34.8C299.9 35.3 300.6 35.9 301 36.6C301.4 37.3 301.7 38.1 301.7 39.1C301.7 40.7 301.1 42 299.8 42.9C298.5 43.8 296.8 44.3 294.7 44.3C292.5 44.3 290.7 43.8 289.3 42.7C287.9 41.6 287.2 40.3 287.2 38.6H289.3C289.4 39.8 289.9 40.8 290.9 41.5C291.9 42.2 293.1 42.5 294.7 42.5C296.2 42.5 297.3 42.2 298.3 41.5C299.3 40.8 299.8 40.1 299.8 39.2ZM321.9 34.7C321.9 37.7 321.2 40 319.9 41.8C318.6 43.5 316.8 44.4 314.6 44.4C312 44.4 310 43.5 308.6 41.7V51.4H306.5V25H308.5L308.6 27.7C310 25.7 312 24.7 314.6 24.7C316.9 24.7 318.7 25.6 320 27.3C321.3 29 321.9 31.4 321.9 34.5V34.7ZM319.8 34.3C319.8 31.9 319.3 30 318.3 28.6C317.3 27.2 315.9 26.5 314.1 26.5C312.8 26.5 311.7 26.8 310.8 27.4C309.9 28 309.2 28.9 308.7 30.1V39.2C309.2 40.3 309.9 41.1 310.9 41.7C311.8 42.3 312.9 42.6 314.2 42.6C316 42.6 317.3 41.9 318.3 40.5C319.3 39 319.8 37 319.8 34.3ZM325.4 34.2C325.4 32.4 325.8 30.7 326.5 29.3C327.2 27.8 328.2 26.7 329.5 25.9C330.8 25.1 332.3 24.7 333.9 24.7C336.4 24.7 338.5 25.6 340.1 27.4C341.7 29.2 342.5 31.5 342.5 34.5V34.9C342.5 36.7 342.1 38.4 341.4 39.9C340.7 41.4 339.7 42.5 338.4 43.3C337.1 44.1 335.6 44.5 334 44.5C331.5 44.5 329.4 43.6 327.9 41.8C326.3 40 325.5 37.7 325.5 34.7L325.4 34.2ZM327.5 34.8C327.5 37.1 328.1 38.9 329.3 40.4C330.5 41.9 332 42.6 333.9 42.6C335.8 42.6 337.3 41.9 338.5 40.4C339.7 38.9 340.3 37 340.3 34.6V34.2C340.3 32.7 340 31.4 339.5 30.2C339 29 338.2 28.1 337.2 27.4C336.2 26.7 335.1 26.4 333.9 26.4C332 26.4 330.5 27.1 329.3 28.6C328.1 30.1 327.5 32 327.5 34.4V34.8ZM355.5 26.8C355.1 26.7 354.6 26.7 354.1 26.7C352.8 26.7 351.7 27.1 350.8 27.8C349.9 28.5 349.2 29.6 348.9 31V44H346.8V25H348.9V28C350 25.8 351.8 24.6 354.3 24.6C354.9 24.6 355.3 24.7 355.7 24.8C355.6 24.9 355.5 26.8 355.5 26.8ZM363 20.1V25H366.9V26.7H363V39.4C363 40.5 363.2 41.2 363.6 41.8C364 42.3 364.6 42.6 365.5 42.6C365.9 42.6 366.4 42.5 367.2 42.4L367.3 44.1C366.8 44.3 366 44.4 365.1 44.4C363.7 44.4 362.6 44 362 43.1C361.3 42.3 361 41 361 39.4V26.7H357.5V25H361V20.1H363Z"/>
    <defs>
        <linearGradient id="gradient" x1="40" y1="0.02" x2="40" y2="60.02" gradientUnits="userSpaceOnUse">
            <stop stop-color="#80DDF3"/>
            <stop offset="1" stop-color="#4990E2"/>
        </linearGradient>
    </defs>
</svg>
